<svg xmlns="http://www.w3.org/2000/svg" version="1.1" xmlns:xlink="http://www.w3.org/1999/xlink" width="370" height="370"><svg width="370" height="370" viewBox="0 0 370 370" fill="none" xmlns="http://www.w3.org/2000/svg">
<rect width="370" height="370" rx="24" fill="#6D8A61"></rect>
<path d="M153.784 65C155.324 65.0002 156.704 65.9494 157.255 67.3867L187.588 146.489C188.046 147.682 189.734 147.682 190.191 146.489L216.092 78.9531C216.53 76.2225 216.36 75.065 215.162 71.9766L213.915 70.1064C213.521 69.5156 213.356 68.793 213.509 68.0996C213.592 67.7226 213.686 67.3681 213.802 67.0166C214.126 66.0303 215.115 65.4649 216.153 65.4648H232.818C235.492 65.465 237.904 67.1296 238.883 69.6172C271.799 153.238 290.354 199.007 322.809 281.977C327.619 291.534 331.282 296.811 341.064 299.099C341.933 299.302 342.571 300.063 342.571 300.955V303.142C342.571 304.168 341.739 305 340.713 305H283.748C282.722 305 281.889 304.168 281.889 303.142V301.116C281.889 300.155 282.626 299.359 283.578 299.225C289.247 298.425 291.926 296.354 294.079 291.972C294.669 290.771 294.891 289.423 294.796 288.088C294.07 277.965 291.152 272.007 287.004 261.744L261.198 196.869C260.917 196.162 260.232 195.697 259.471 195.697H210.254C209.266 195.697 208.592 196.698 208.962 197.614L243.062 281.977C247.053 291.958 250.789 297.017 259.682 299.102C260.553 299.306 261.196 300.068 261.196 300.963V303.142C261.196 304.168 260.364 305 259.338 305H204.466C203.439 305 202.607 304.168 202.606 303.142V301.135C202.607 300.166 203.355 299.373 204.312 299.22C207.98 298.631 210.392 297.042 214.135 293.012C214.198 292.943 214.253 292.862 214.293 292.777C216.609 287.828 216.32 283.852 213.302 275L187.899 212.251C187.424 211.076 185.754 211.096 185.307 212.282C172.734 245.629 167.326 262.385 154.944 281.977C149.284 289.605 145.967 292.853 139.832 297.093C132.339 301.757 127.539 303.478 118.051 304.988C118.003 304.996 117.953 305 117.904 305H29.8584C28.8322 305 28.0004 304.168 28 303.142V300.809C28 299.783 28.8325 298.963 29.8555 298.896C33.5406 298.658 35.9104 297.647 39.5264 295.297C39.591 295.255 39.652 295.202 39.7041 295.146C46.2786 287.989 49.109 283.062 52.877 272.907L127.027 82.9082C127.804 80.919 128.211 78.7571 127.751 76.6719C127.208 74.2128 126.217 72.4184 124.3 70.2354C123.833 69.7033 123.558 69.0245 123.558 68.3164V67.7881C123.558 66.2483 124.806 65 126.346 65H153.784ZM141.197 95.8975C141.045 95.5018 140.481 95.4906 140.327 95.8857L80.5449 249.419C78.6324 254.702 77.9901 258.689 77.5225 267.558C77.7058 273.67 78.3292 276.99 80.5449 282.674C83.3084 286.909 85.4521 288.622 90.3096 290.581C94.2305 290.931 96.102 290.665 98.9121 289.419C101.613 287.402 102.485 285.898 103.098 282.674C103.139 280.331 102.764 279.102 101.237 277.093C99.2429 276.171 98.118 276.161 96.1221 277.093C94.8296 279.54 94.0245 280.543 92.4023 281.512C90.885 281.707 90.1307 281.491 88.915 280.581C87.5604 279.408 86.9004 278.435 85.8926 276.163C85.78 274.606 85.7848 273.514 85.8926 271.279C87.8785 267.13 89.2989 265.285 92.4023 262.907C95.1526 261.018 97.1147 260.382 101.237 259.884C104.771 260.081 106.756 260.733 110.305 262.907C112.837 265.248 113.939 266.781 115.42 269.884C117.017 272.849 117.4 274.854 117.28 278.953C117.237 282.853 116.919 284.831 115.885 288.023C114.923 290.352 114.22 291.727 112.63 294.302C121.397 292.262 125.943 289.775 132.857 282.674C140.081 274.578 142.855 269.186 146.808 259.419C139.279 261.371 135.031 261.357 127.51 259.419C118.21 255.698 114.187 252.185 108.678 243.837C105.013 237.402 104.11 232.592 104.683 223.11C104.709 222.667 104.771 222.221 104.866 221.787C106.726 213.347 108.981 209.304 114.723 203.604C118.525 200.51 121.189 198.995 126.372 197.237C127.125 196.982 127.913 196.833 128.708 196.801C133.757 196.593 136.639 197.067 140.995 198.721C145.706 201.332 147.944 203.626 151.225 209.186C152.779 212.94 153.277 215.389 153.123 219.706C153.102 220.288 153.017 220.869 152.87 221.433C151.58 226.387 150.191 228.764 146.808 231.744C144.257 233.714 142.442 234.493 138.438 235.232C134.837 235.054 132.855 234.43 130.115 232.335C129.613 231.951 129.145 231.511 128.821 230.969C128.405 230.271 128.181 229.532 128.069 228.498C127.958 227.472 128.817 226.636 129.848 226.583C130.981 226.525 131.957 226.403 133.322 226.163C135.632 225.023 136.704 223.897 137.664 221.258C137.88 220.663 137.95 220.022 137.854 219.396C137.528 217.257 136.836 216.063 134.95 214.535C133.524 213.193 132.109 212.764 128.979 212.861C128.317 212.882 127.668 213.062 127.091 213.386C124.817 214.66 123.605 215.735 122.184 217.672C122.014 217.904 121.868 218.155 121.752 218.418C120.613 221.003 120.386 222.776 120.133 225.85C120.09 226.366 120.091 226.888 120.143 227.404C120.553 231.507 121.21 233.613 122.859 236.628C125.175 239.955 126.973 241.631 130.997 244.302C133.814 245.83 135.687 246.298 139.6 246.396C143.761 246.052 146.109 245.379 149.571 243.453C150.21 243.098 150.797 242.652 151.316 242.139C154.712 238.783 156.441 236.368 158.665 231.744L175.645 187.408C176.237 185.862 176.214 184.139 175.587 182.606C162.203 149.919 154.453 130.326 141.197 95.8975ZM138.324 138.699C138.946 137.129 141.17 137.134 141.784 138.707L162.354 191.407C162.592 192.017 162.143 192.674 161.489 192.674H160.158C159.65 192.674 159.163 192.465 158.811 192.099C152.42 185.464 148.694 182.836 141.46 180.349C136.301 179.227 132.448 179.093 123.407 178.967C122.919 178.96 122.587 178.467 122.767 178.014L138.324 138.699ZM225.368 103.801C225.213 103.405 224.651 103.408 224.501 103.807L198.569 172.746C198.475 172.996 198.494 173.275 198.619 173.511C199.636 175.433 200.275 176.718 201.41 178.719C201.574 179.008 201.882 179.186 202.215 179.186H253.557C254.211 179.186 254.661 178.527 254.422 177.917L225.368 103.801Z" fill="#ECE5D8"></path>
</svg><style>@media (prefers-color-scheme: light) { :root { filter: none; } }
@media (prefers-color-scheme: dark) { :root { filter: none; } }
</style></svg>